# xmcd
#
# Track frame offsets:
#  150
#  15438
#  29671
#  44515
#  59435
#  75714
#  92158
#  109002
#  126077
#  145550
#  165125
#  186792
#  209050
#  231498
#  254764
#  280396
#  306693
#  334590
#
# Disc length: 4727 seconds
#
# Revision: 0
# Processed by: cddbd v1.5.1PL0 Copyright (c) Steve Scherf et al.
# Submitted via: AltoMP3_Maker 3.0
#
DISCID=0b127512
DTITLE=Jhena Lodwick - The Best From Me
DYEAR=1900
DGENRE=
TTITLE0=Interlude
TTITLE1=Song Sung Blue
TTITLE2=Jambalaya
TTITLE3=Are You Lonesome Tonight
TTITLE4=A Groovy Kind Of Love
TTITLE5=I'll Never Fall In Love
TTITLE6=Morning Has Broken
TTITLE7=A Child Is Born
TTITLE8=When You Tell Me That You Love Me
TTITLE9=Tammy
TTITLE10=Ocean Deep
TTITLE11=Perhaps Love
TTITLE12=Tears In Heaven
TTITLE13=Close To You
TTITLE14=Getting To Know You
TTITLE15=Feelings
TTITLE16=Danny Boy
TTITLE17=It's Now Or Never
EXTD=
EXTT0=
EXTT1=
EXTT2=
EXTT3=
EXTT4=
EXTT5=
EXTT6=
EXTT7=
EXTT8=
EXTT9=
EXTT10=
EXTT11=
EXTT12=
EXTT13=
EXTT14=
EXTT15=
EXTT16=
EXTT17=
PLAYORDER=
